<svg id="Capa_1" enable-background="new 0 0 512.25 512.25" height="512" viewBox="0 0 512.25 512.25" width="512" xmlns="http://www.w3.org/2000/svg"><g id="XMLID_1514_"><g id="XMLID_1450_"><path id="XMLID_1323_" d="m328.125 414.25h-144c-13.255 0-24 10.745-24 24 0 13.255 10.745 24 24 24h144c13.255 0 24-10.745 24-24 0-13.255-10.745-24-24-24z" fill="#91def5"/><path id="XMLID_1322_" d="m296.252 462.25c0 22.091-17.909 40-40 40s-40-17.909-40-40z" fill="#98a1b3"/><path id="XMLID_1490_" d="m328.125 97.75h-144c-13.255 0-24-10.745-24-24 0-13.255 10.745-24 24-24h144c13.255 0 24 10.745 24 24 0 13.255-10.745 24-24 24z" fill="#91def5"/><path id="XMLID_1477_" d="m296.252 49.75c0-22.091-17.909-40-40-40s-40 17.909-40 40z" fill="#98a1b3"/><path id="XMLID_1169_" d="m184.125 98h144v316.25h-144z" fill="#cff1fb"/><g fill="#f5737f"><path id="XMLID_1278_" d="m328.219 298.99-114.844 114.843h-27.625v-87.541l142.427-142.427z"/><path id="XMLID_1326_" d="m184.125 212.891 114.758-114.891h-114.758z"/></g></g><g id="XMLID_1071_"><path id="XMLID_1074_" d="m338.125 405.753v-299.256c13.882-4.281 24-17.228 24-32.497 0-18.748-15.252-34-34-34h-22.879c-4.646-22.795-24.848-40-48.994-40s-44.348 17.205-48.994 40h-23.133c-18.748 0-34 15.252-34 34 0 15.269 10.118 28.217 24 32.497v299.256c-13.882 4.281-24 17.228-24 32.497 0 18.748 15.252 34 34 34h23.133c4.646 22.795 24.847 40 48.994 40s44.348-17.205 48.994-40h22.879c18.748 0 34-15.252 34-34 0-15.269-10.118-28.217-24-32.497zm-144-73.693 37.245-37.245c3.905-3.905 3.905-10.237 0-14.143-3.905-3.904-10.237-3.904-14.143 0l-23.103 23.103v-86.882l108.893-108.893h15.108v71.774l-36.507 36.507c-3.905 3.905-3.905 10.237 0 14.143 1.953 1.952 4.512 2.929 7.071 2.929s5.119-.977 7.071-2.929l22.365-22.365v86.882l-109.309 109.309h-14.691zm0-143.453v-80.607h80.607zm124 134.619v81.024h-81.025zm-61.873-303.226c13.036 0 24.152 8.361 28.28 20h-56.56c4.128-11.639 15.244-20 28.28-20zm-72.127 40h144c7.72 0 14 6.28 14 14s-6.28 14-14 14h-144c-7.72 0-14-6.28-14-14s6.28-14 14-14zm72.127 432.25c-13.036 0-24.152-8.361-28.28-20h56.56c-4.128 11.639-15.244 20-28.28 20zm71.873-40h-144c-7.72 0-14-6.28-14-14s6.28-14 14-14h144c7.72 0 14 6.28 14 14s-6.28 14-14 14z"/><path id="XMLID_1090_" d="m256.125 266c2.63 0 5.21-1.07 7.07-2.931 1.86-1.859 2.93-4.439 2.93-7.069s-1.07-5.21-2.93-7.07-4.44-2.93-7.07-2.93-5.21 1.069-7.07 2.93c-1.86 1.86-2.93 4.44-2.93 7.07s1.07 5.21 2.93 7.069c1.86 1.861 4.44 2.931 7.07 2.931z"/></g></g></svg>