<?xml version="1.0" encoding="utf-8"?>
<!-- Generator: Adobe Illustrator 23.0.6, SVG Export Plug-In . SVG Version: 6.00 Build 0)  -->
<svg version="1.1" id="image" xmlns="http://www.w3.org/2000/svg" xmlns:xlink="http://www.w3.org/1999/xlink" x="0px" y="0px"
	 viewBox="0 0 6339.7 971.7" style="enable-background:new 0 0 6339.7 971.7;" xml:space="preserve">
<style type="text/css">
	.st0{fill:#5BC279;}
	.st1{fill:#793B21;}
	.st2{clip-path:url(#SVGID_2_);fill:#9E5739;}
	.st3{clip-path:url(#SVGID_4_);fill:#9E5739;}
	.st4{clip-path:url(#SVGID_6_);fill:#9E5739;}
	.st5{clip-path:url(#SVGID_8_);fill:#9E5739;}
	.st6{clip-path:url(#SVGID_10_);fill:#9E5739;}
	.st7{opacity:0.27;fill:#9E5739;enable-background:new    ;}
	.st8{fill:#D69A7E;}
	.st9{fill:#E76247;}
	.st10{fill:#69331D;}
	.st11{opacity:0.27;}
	.st12{fill:#9E5739;}
	.st13{fill:#FFFFFF;}
	.st14{fill:#662D1A;}
	.st15{fill:#CC945B;}
	.st16{fill:#4A2812;}
	.st17{fill:none;stroke:#351A0B;stroke-width:1.1397;stroke-linecap:round;stroke-linejoin:round;stroke-miterlimit:10;}
	.st18{fill:url(#SVGID_11_);}
	.st19{fill:#794025;}
	.st20{fill:#333B3D;}
	.st21{fill:#16191A;}
	.st22{fill:#F8AD89;}
	.st23{clip-path:url(#SVGID_14_);}
	.st24{clip-path:url(#SVGID_15_);fill:url(#SVGID_16_);}
	.st25{fill:url(#SVGID_17_);}
	.st26{clip-path:url(#SVGID_20_);}
	.st27{clip-path:url(#SVGID_21_);fill:url(#SVGID_22_);}
	.st28{clip-path:url(#SVGID_25_);}
	.st29{clip-path:url(#SVGID_26_);fill:url(#SVGID_27_);}
	.st30{clip-path:url(#SVGID_30_);}
	.st31{clip-path:url(#SVGID_31_);fill:url(#SVGID_32_);}
	.st32{clip-path:url(#SVGID_35_);}
	.st33{clip-path:url(#SVGID_36_);fill:url(#SVGID_37_);}
	.st34{fill:#303D8B;}
	.st35{fill:#EDEDED;}
	.st36{opacity:0.11;fill:url(#SVGID_38_);enable-background:new    ;}
	.st37{clip-path:url(#SVGID_41_);}
	.st38{clip-path:url(#SVGID_42_);fill:url(#SVGID_43_);}
	.st39{fill:#EDA583;}
	.st40{fill:#1F2759;}
	.st41{clip-path:url(#SVGID_46_);}
	.st42{clip-path:url(#SVGID_47_);fill:url(#SVGID_48_);}
	.st43{fill:#413939;}
	.st44{clip-path:url(#SVGID_51_);}
	.st45{clip-path:url(#SVGID_52_);fill:url(#SVGID_53_);}
	.st46{clip-path:url(#SVGID_56_);}
	.st47{clip-path:url(#SVGID_57_);fill:url(#SVGID_58_);}
	.st48{clip-path:url(#SVGID_61_);}
	.st49{clip-path:url(#SVGID_62_);fill:url(#SVGID_63_);}
	.st50{fill:url(#SVGID_64_);}
	.st51{clip-path:url(#SVGID_67_);}
	.st52{clip-path:url(#SVGID_68_);fill:url(#SVGID_69_);}
	.st53{fill:#23D3E7;}
	.st54{fill:#3D200E;}
	.st55{fill:none;stroke:#3D200E;stroke-width:1.5289;stroke-linecap:round;stroke-linejoin:round;stroke-miterlimit:10;}
	.st56{fill:#7A4C36;}
	.st57{fill-rule:evenodd;clip-rule:evenodd;fill:#E48613;}
	.st58{fill:none;stroke:#303D8B;stroke-width:3;stroke-miterlimit:10;}
	.st59{fill:#CC6633;}
	.st60{fill:#2B1929;}
	.st61{fill:#EF9D7D;}
	.st62{fill:none;stroke:#CC6633;stroke-width:1.5376;stroke-linecap:round;stroke-miterlimit:10;}
	.st63{fill:url(#SVGID_70_);}
	.st64{fill-rule:evenodd;clip-rule:evenodd;fill:#94642E;}
</style>
<g>
	<g id="Ground">
		<path class="st0" d="M3036.6,867.1c0,4.4,145.5,12.2,324.9,12.2s324.9-7.8,324.9-12.2s-142.3-14.9-321.8-14.9
			S3036.6,862.7,3036.6,867.1z"/>
	</g>
	<g>
		<polygon class="st1" points="3986,672.1 4103.9,585.6 4224.9,672.1 4213.4,842.1 3993.3,842.1 		"/>
		<g>
			<g>
				<defs>
					<polygon id="SVGID_1_" points="3986,672.1 4103.9,585.6 4224.9,672.1 4213.4,842.1 3993.3,842.1 					"/>
				</defs>
				<clipPath id="SVGID_2_">
					<use xlink:href="#SVGID_1_"  style="overflow:visible;"/>
				</clipPath>
				<polygon class="st2" points="4045.5,864.1 3980.8,864.1 3980.8,625.2 4033,585.6 				"/>
			</g>
			<g>
				<defs>
					<polygon id="SVGID_3_" points="3986,672.1 4103.9,585.6 4224.9,672.1 4213.4,842.1 3993.3,842.1 					"/>
				</defs>
				<clipPath id="SVGID_4_">
					<use xlink:href="#SVGID_3_"  style="overflow:visible;"/>
				</clipPath>
				<polygon class="st3" points="4085.1,857.8 4048.6,862 4040.3,581.4 4079.9,578.3 				"/>
			</g>
			<g>
				<defs>
					<polygon id="SVGID_5_" points="3986,672.1 4103.9,585.6 4224.9,672.1 4213.4,842.1 3993.3,842.1 					"/>
				</defs>
				<clipPath id="SVGID_6_">
					<use xlink:href="#SVGID_5_"  style="overflow:visible;"/>
				</clipPath>
				<polygon class="st4" points="4122.7,854.7 4091.4,858.8 4084.1,578.3 4132.1,582.5 				"/>
			</g>
			<g>
				<defs>
					<polygon id="SVGID_7_" points="3986,672.1 4103.9,585.6 4224.9,672.1 4213.4,842.1 3993.3,842.1 					"/>
				</defs>
				<clipPath id="SVGID_8_">
					<use xlink:href="#SVGID_7_"  style="overflow:visible;"/>
				</clipPath>
				<polygon class="st5" points="4170.6,867.2 4131,868.2 4134.1,590.8 4180,595 				"/>
			</g>
			<g>
				<defs>
					<polygon id="SVGID_9_" points="3986,672.1 4103.9,585.6 4224.9,672.1 4213.4,842.1 3993.3,842.1 					"/>
				</defs>
				<clipPath id="SVGID_10_">
					<use xlink:href="#SVGID_9_"  style="overflow:visible;"/>
				</clipPath>
				<polygon class="st6" points="4220.7,877.6 4173.8,878.7 4184.2,601.2 4230.1,605.4 				"/>
			</g>
		</g>
		<path class="st7" d="M4227,662.2l-118.4-82.7c-3.7,1.5-7.4,2.9-11.2,4.4l-113.7,80.5l2.5,29.7l120.6-87.5c0.1-0.1,0.3-0.2,0.4-0.3
			l116.7,84.9L4227,662.2z"/>
		<g>
			<circle class="st8" cx="3991" cy="681.8" r="1.8"/>
			<circle class="st8" cx="3997.3" cy="838.2" r="1.8"/>
			<circle class="st8" cx="4040" cy="839.3" r="1.8"/>
			<circle class="st8" cx="4168.3" cy="838.2" r="1.8"/>
			<circle class="st8" cx="4210" cy="838.2" r="1.8"/>
			<circle class="st8" cx="4033.1" cy="648.8" r="1.8"/>
			<circle class="st8" cx="4044.9" cy="639.9" r="1.8"/>
			<circle class="st8" cx="4087.7" cy="606.1" r="1.8"/>
			<circle class="st8" cx="4127.2" cy="608.3" r="1.8"/>
			<circle class="st8" cx="4078.2" cy="616.4" r="1.8"/>
			<circle class="st8" cx="4137.6" cy="616.1" r="1.8"/>
			<circle class="st8" cx="4174.7" cy="642.7" r="1.8"/>
			<circle class="st8" cx="4186.4" cy="650.8" r="1.8"/>
			<circle class="st8" cx="4220.4" cy="677.2" r="1.8"/>
		</g>
		<path class="st9" d="M4240.9,685.8l-137.6-100c-1.1-0.8-1.6-2.1-1.3-3.3l1.1-18.7c0.4-2.4,3.3-3.6,5.3-2.2L4256,664.7
			c1.5,1.1,1.9,3.2,0.8,4.7l-11.1,15.6C4244.5,686.5,4242.4,686.9,4240.9,685.8z"/>
		<path class="st9" d="M3969.1,688.8l137.7-99.9c1.1-0.8,1.6-2.1,1.3-3.3l1-21.8c-0.4-2.4-3.3-3.6-5.3-2.2L3954,667.7
			c-1.5,1.1-1.9,3.2-0.8,4.7l11,15.7C3965.4,689.6,3967.6,689.9,3969.1,688.8z"/>
		<path class="st10" d="M4104.9,694.1c-27.5,0-49.7,22.3-49.7,49.7v98.4h99.5v-98.4C4154.7,716.3,4132.4,694.1,4104.9,694.1z"/>
		<g class="st11">
			<circle class="st12" cx="4133.1" cy="641.9" r="9.4"/>
			<circle class="st12" cx="4133.1" cy="655.5" r="9.4"/>
			<circle class="st12" cx="4083" cy="641.9" r="9.4"/>
			<circle class="st12" cx="4083" cy="655.5" r="9.4"/>
			<path class="st12" d="M4088.3,637.7c0,0,9.4,5.2,20.9,5.2s19.8-5.2,19.8-5.2v21.9c0,0-7.3-5.2-19.8-5.2s-20.9,6.3-20.9,6.3
				l-4.2-18.8L4088.3,637.7z"/>
		</g>
		<g>
			<circle class="st13" cx="4133.1" cy="637.7" r="9.4"/>
			<circle class="st13" cx="4133.1" cy="651.3" r="9.4"/>
			<circle class="st13" cx="4083" cy="637.7" r="9.4"/>
			<circle class="st13" cx="4083" cy="651.3" r="9.4"/>
			<path class="st13" d="M4088.3,633.6c0,0,9.4,5.2,20.9,5.2s19.8-5.2,19.8-5.2v21.9c0,0-7.3-5.2-19.8-5.2s-20.9,6.3-20.9,6.3
				l-4.2-18.8L4088.3,633.6z"/>
		</g>
		<g>
			<g>
				<path class="st14" d="M4176.9,691v-12.3l-24,0.8c0,0,13.2-1.5,24-2.3v-6.1h-139.8v2.9c3.3,0.6,7.3,1.2,7.3,1.2s-4,0.4-7.3,1
					v23.5l33.4,3.7c0,0-19.5-0.9-33.4-1.5v9.8h139.8v-17.3c-10.3-0.6-25.4-1.5-26.1-1.5C4150.1,693,4165,691.6,4176.9,691z"/>
				<path class="st14" d="M4033,673.2c-0.1,0,0,0,0.2,0.1C4033.1,673.2,4033.1,673.2,4033,673.2z"/>
			</g>
			<g>
				<path class="st15" d="M4176.9,688.9v-12.3l-24,0.8c0,0,13.2-1.5,24-2.3V669h-139.8v2.9c3.3,0.6,7.3,1.2,7.3,1.2s-4,0.4-7.3,1
					v23.5l33.4,3.7c0,0-19.5-0.9-33.4-1.5v9.8h139.8v-17.3c-10.3-0.6-25.4-1.5-26.1-1.5C4150.1,690.9,4165,689.6,4176.9,688.9z"/>
				<path class="st15" d="M4033,671.1c-0.1,0,0,0,0.2,0.1C4033.1,671.1,4033.1,671.1,4033,671.1z"/>
			</g>
		</g>
		<g>
			<path class="st13" d="M4081.2,696.3v-12.2c0-0.2,0.1-0.3,0.2-0.5c0.1-0.1,0.3-0.2,0.5-0.2h3c0.1,0,0.3,0,0.4,0.1s0.2,0.1,0.3,0.2
				l3.6,3.9l3.8-3.9c0.2-0.1,0.3-0.2,0.5-0.3c0.2,0,0.4,0,0.7,0h2.6c0.2,0,0.3,0.1,0.5,0.2c0.1,0.1,0.2,0.3,0.2,0.5v12.2
				c0,0.2-0.1,0.4-0.2,0.5s-0.3,0.2-0.5,0.2h-2.6c-0.2,0-0.4-0.1-0.5-0.2s-0.2-0.3-0.2-0.5v-7.1l-3.1,3.9c-0.3,0.3-0.6,0.5-1,0.5
				c-0.2,0-0.4,0-0.6-0.1c-0.2-0.1-0.3-0.2-0.4-0.3l-3.2-4v7.1c0,0.2-0.1,0.4-0.2,0.5s-0.3,0.2-0.5,0.2h-2.6c-0.2,0-0.4-0.1-0.5-0.2
				C4081.3,696.6,4081.2,696.5,4081.2,696.3z"/>
			<path class="st13" d="M4099.2,696.2c0-0.2,0-0.4,0.1-0.6c0.1-0.2,0.1-0.3,0.1-0.4l4.3-10.9c0.1-0.3,0.3-0.5,0.5-0.6
				s0.5-0.2,0.8-0.2h1.6h1.2c0.3,0,0.6,0.1,0.8,0.3c0.2,0.2,0.4,0.4,0.4,0.6l4.3,10.9c0,0.1,0.1,0.2,0.1,0.4
				c0.1,0.2,0.1,0.4,0.1,0.6c0,0.5-0.3,0.7-0.8,0.8h-2.7c-0.3,0-0.5,0-0.7-0.1s-0.3-0.2-0.4-0.4l-0.6-1.9h-4.3l-0.6,1.9
				c-0.1,0.2-0.2,0.3-0.3,0.4s-0.4,0.1-0.7,0.1h-2.7C4099.4,696.9,4099.2,696.6,4099.2,696.2z M4106.6,691.2h1.3l-1.5-4.5l-1.5,4.5
				H4106.6z"/>
			<path class="st13" d="M4115,696.3c0-0.2,0-0.3,0.1-0.4l4.4-6l-4.2-5.4c-0.1-0.1-0.1-0.2-0.1-0.4s0.1-0.3,0.2-0.5
				c0.1-0.1,0.3-0.2,0.4-0.2h3.8c0.2,0,0.3,0.1,0.5,0.3l1.9,2.7l2-2.7c0.1-0.1,0.1-0.1,0.2-0.2c0.1,0,0.2-0.1,0.3-0.1h3.8
				c0.2,0,0.3,0.1,0.4,0.2c0.1,0.1,0.2,0.3,0.2,0.5s0,0.3-0.1,0.4l-4.4,5.4l4.6,6c0.1,0.1,0.1,0.2,0.1,0.4s-0.1,0.3-0.2,0.5
				c-0.1,0.1-0.3,0.2-0.4,0.2h-4.1c-0.1,0-0.2,0-0.3-0.1c-0.1-0.1-0.2-0.1-0.2-0.2l-1.8-2.5l-1.7,2.5c-0.2,0.2-0.4,0.3-0.5,0.3h-4.2
				c-0.2,0-0.3-0.1-0.5-0.2C4115.1,696.6,4115,696.5,4115,696.3z"/>
		</g>
		<g>
			<g>
				<circle class="st16" cx="3948.5" cy="828.6" r="3.7"/>
				<circle class="st16" cx="3952.4" cy="826.6" r="3.7"/>
				<circle class="st16" cx="3954.8" cy="821" r="3.7"/>
				<circle class="st16" cx="3958.4" cy="819.6" r="3.7"/>
				<circle class="st16" cx="3961.8" cy="813.7" r="3.7"/>
				<circle class="st16" cx="3966.3" cy="813.4" r="3.7"/>
				<circle class="st16" cx="3969.2" cy="810.3" r="3.7"/>
				<circle class="st16" cx="3973.9" cy="813.1" r="3.7"/>
				<circle class="st16" cx="3976.6" cy="813.5" r="3.7"/>
				<circle class="st16" cx="3982.7" cy="813.2" r="3.7"/>
				<circle class="st16" cx="3988" cy="809.6" r="3.7"/>
				<circle class="st16" cx="3998.3" cy="814.9" r="3.7"/>
				<circle class="st16" cx="4004.5" cy="817.6" r="3.7"/>
				<circle class="st16" cx="4008.5" cy="818.6" r="3.7"/>
				<circle class="st16" cx="4009.7" cy="822.8" r="3.7"/>
				<circle class="st16" cx="4015.8" cy="824" r="3.7"/>
				<circle class="st16" cx="4017.7" cy="826.3" r="3.7"/>
				<circle class="st16" cx="4019.7" cy="828.7" r="3.7"/>
				<path class="st16" d="M3947.9,831c0,0,3.6-3.2,4-4s4-5.8,4-5.8s1.1-2.5,2.6-2.6s3.4-4.4,3.4-4.4l3.9-0.5c0,0,0.8-3.5,3.1-2.8
					s4.8,1.8,4.8,1.8l6.8,1.5c0,0,4.9-2.8,5.6-2.6c0.7,0.2,9.9,2.7,9.9,2.7l5.2,1.6l6.8,3l5.5,4.3l3.9,2.8l4.2,4l-1.6,3.7
					C4020.1,833.7,3968.8,840.8,3947.9,831z"/>
				<path class="st17" d="M3988.8,817.9c-0.7-2,0.4-4.1,2.4-4.7c2-0.7,4.1,0.4,4.7,2.4"/>
				<g>
					<circle class="st16" cx="3992.2" cy="813.6" r="3.7"/>
					<path class="st17" d="M3969.3,823.5c-0.7-2,0.4-4.1,2.4-4.7c2-0.7,4.1,0.4,4.7,2.4"/>
					<path class="st17" d="M3959.3,823.9c0.2-2,2.1-3.5,4.1-3.3c2.1,0.2,3.5,2.1,3.3,4.1"/>
					<path class="st17" d="M4005.4,827.1c0.2-2,2.1-3.5,4.1-3.3c2.1,0.2,3.5,2.1,3.3,4.1"/>
					<path class="st17" d="M3977.9,817.6c-0.6-1.7,0.3-3.5,2-4.1s3.5,0.3,4.1,2"/>
					<path class="st17" d="M3964.1,815.2c-0.6-1.7,0.3-3.5,2-4.1s3.5,0.3,4.1,2"/>
					<path class="st17" d="M3980,822.6c0.2-2,2.1-3.5,4.1-3.3s3.5,2.1,3.3,4.1"/>
					<path class="st17" d="M3992.6,829.8c0.6-2,2.6-3.1,4.6-2.6c2,0.6,3.1,2.6,2.6,4.6"/>
				</g>
			</g>
			
				<linearGradient id="SVGID_11_" gradientUnits="userSpaceOnUse" x1="3814.7239" y1="-1733.837" x2="3794.7856" y2="-1792.9647" gradientTransform="matrix(0.916 0.4013 0.4013 -0.916 1197.8181 -2291.1616)">
				<stop  offset="0.2656" style="stop-color:#DECFB2"/>
				<stop  offset="1" style="stop-color:#D1C3A8"/>
			</linearGradient>
			<path class="st18" d="M3939.5,827.7c8.9,1.2,62.3,7.6,84.2,0c0.9-0.3,1.8,0.1,2.1,1c1.3,3.3,4.6,11.3,8.5,19.5
				c0.5,1-0.1,2.1-1.1,2.4c-34.4,9.4-75.5,7.1-103.1,0.5c-1-0.2-1.6-1.4-1.2-2.3l8.8-20C3938.1,828,3938.8,827.6,3939.5,827.7z"/>
			<path class="st9" d="M4026.8,830.9c-0.4-0.9-0.7-1.7-0.9-2.3c-0.3-0.8-1.3-1.3-2.1-1c-21.8,7.7-75.3,1.2-84.2,0
				c-0.8-0.1-1.5,0.3-1.8,1l-1,2.4C3962.1,836.2,3996.4,837.7,4026.8,830.9z"/>
		</g>
	</g>
	<g>
		<g id="Man_with_his_dog">
			<path class="st19" d="M3158.7,761.8c-8.2-41-9.3-56.7-9.2-62.4l68.3,23.9c-21,69.8-45.2,80.1-45.2,80.1
				c-17.8,12.1-10.7,43.4-10.7,43.4c18.6-1.5,13.1,13.8,13.1,13.8c-20,2-33.5-0.8-33.5-0.8c0.3-9.1,3.6-24.3,1.5-35.7
				c-2.6-14.5-1.1-19.3-1.1-19.3C3160.8,788.4,3158.7,761.8,3158.7,761.8z"/>
			<path class="st20" d="M3421.7,825.2c0,0,1.8,0.5,2.3,1.2s1.5,22.8,1.5,22.8s-8.9,0.6-23.2,2.8s-39.9,4.6-52.7,0
				c-1-9.8-0.6-20.3,20.1-14.5c18.6-1.6,20.7-14.9,26.1-14.5C3406.6,831.7,3421.7,825.2,3421.7,825.2z"/>
			<path class="st21" d="M3348.7,856.9c3.1,1.1,26.8,4.3,40.7,2.4c13.9-1.9,38.3-2.6,38.3-2.6s-0.6-3.9-0.8-5.7
				c-0.3-1.7-1.4-1.8-1.5-1.8c0,0-8.9,0.6-23.2,2.8s-39.9,4.6-52.7,0C3349.5,851.9,3348.4,853.8,3348.7,856.9z"/>
			<path class="st22" d="M3363.9,587.4c0,0,41.4,51.9,60.8,55.1c9.5,1.5,35-9.9,35-9.9l-9.7-30.1l-26.3,5.7l-52-40.8L3363.9,587.4z"
				/>
			<g>
				<g>
					<defs>
						<polygon id="SVGID_12_" points="1,1 2,1 1,2 						"/>
					</defs>
					<defs>
						<polygon id="SVGID_13_" points="-1,-1 -2,-1 -1,-2 						"/>
					</defs>
					<clipPath id="SVGID_14_">
						<use xlink:href="#SVGID_12_"  style="overflow:visible;"/>
					</clipPath>
					<clipPath id="SVGID_15_" class="st23">
						<use xlink:href="#SVGID_13_"  style="overflow:visible;"/>
					</clipPath>
					
						<linearGradient id="SVGID_16_" gradientUnits="userSpaceOnUse" x1="8177.9707" y1="353.2678" x2="8224.8506" y2="347.9072" gradientTransform="matrix(-1 0 0 -1 11631.2461 974)">
						<stop  offset="0" style="stop-color:#FFFFFF"/>
						<stop  offset="1.541328e-02" style="stop-color:#FAFAFA"/>
						<stop  offset="0.3868" style="stop-color:#919191"/>
						<stop  offset="0.685" style="stop-color:#434343"/>
						<stop  offset="0.8957" style="stop-color:#131313"/>
						<stop  offset="1" style="stop-color:#000000"/>
					</linearGradient>
					<path class="st24" d="M3430.4,606.7l19.6-4.3l9.7,30.1c0,0-14.9,6.7-26.2,9.2C3434.6,633.7,3435.1,618.2,3430.4,606.7z"/>
				</g>
			</g>
			<path class="st22" d="M3430.4,606.7l19.6-4.3l9.7,30.1c0,0-14.9,6.7-26.2,9.2C3434.6,633.7,3435.1,618.2,3430.4,606.7z"/>
			<path class="st22" d="M3398,800.3c0,0-1.1,15-2.4,22.7c0,0,10.6,15.8,26,2.2c0,0,0.8-7.6,2.3-23.1L3398,800.3z"/>
			<path class="st19" d="M3294.4,740.2c0,0,14.3,63.6,9.9,81c0,0,2,7.5,3.6,17.1c1,6.2,1,11.7,2.2,17c0,0,13.1,3.7,22.4-0.6V749.5
				L3294.4,740.2z"/>
			<linearGradient id="SVGID_17_" gradientUnits="userSpaceOnUse" x1="3012.2" y1="712.3623" x2="3403.1394" y2="712.3623">
				<stop  offset="0" style="stop-color:#E0A07B"/>
				<stop  offset="1" style="stop-color:#B5622F"/>
			</linearGradient>
			<path class="st25" d="M3012.2,655.5c0,0,20,4.4,32,35c4.3,11,6.6,47.7,44,50.1c36.9,2.4,43.7-41.2,43.7-41.2
				c-2.4,28.2,13.1,29.9,12.6,68c0,0,1.1,26.7-18.4,42.3c0,0-1.7,4.7,0.4,19.3c1.6,11.5,0.3,27.8-0.3,36.9c0,0,10.8,2.1,30.9,0.8
				c0,0,6-15.1-12.6-14.3c0,0-5.9-31.5,12.3-43c0,0,24.6-9.4,48.2-78.3c0,0,29-7.6,63.1,15.2c6.5,4.3,16.9,10.3,29.8,9
				c0,0,27.5,37.3,18.2,68c0,0,3.8,12.3,5.1,17.1c1.7,5.9,3.5,14.9,5.2,20.1c0,0,10.4,10.3,31.4,4.9c0,0,7.1-10.7-12.6-16.5
				c0,0-10.3-36.6-4.9-51.4l7.8-61.1c0,0,5.4-5.4,11-14.3c2.7-4.3,5.5-9.4,7.7-15.1c4.6-11.8,6.8-26,1.3-40.8c0,0-1-9.4-1-15.2
				c0,0,3.9-29.5,3.9-34c0,0,9.4-14.2,25.2-18.8c0,0,0.6-2.1,0.8-4.1c0.1-1.3,0.1-2.5-0.4-3l0.1-0.1c0.8-1.2,5.4-7.8,6.3-15.6
				c0.4-3.8,0-7.9-2-11.8c0,0-4.3,0.4-20.1,5.8c0,0-7.5-8.9-14.7-8.6l-8.4-3.2l-24.1,3.1l-10,6.5c0,0-5.3,2.7-6.8,19.3
				c-0.4,4.9-0.5,11-0.1,18.7c0,0.1,0,0.3,0,0.4c0.2,3,0.5,6.1,0.8,9.6c0,0-3.2,27.5-22.6,34.3c-3.1,1.1-66.6,21.9-123.3,15.2
				c-16.7-2-30.2,1.4-43.8,21.4c-6.9,10.2-44,41.4-54.9-3.6C3069.1,666.2,3054.6,626.2,3012.2,655.5z"/>
			<g>
				<g>
					<defs>
						<polygon id="SVGID_18_" points="1,1 2,1 1,2 						"/>
					</defs>
					<defs>
						<polygon id="SVGID_19_" points="-1,-1 -2,-1 -1,-2 						"/>
					</defs>
					<clipPath id="SVGID_20_">
						<use xlink:href="#SVGID_18_"  style="overflow:visible;"/>
					</clipPath>
					<clipPath id="SVGID_21_" class="st26">
						<use xlink:href="#SVGID_19_"  style="overflow:visible;"/>
					</clipPath>
					
						<linearGradient id="SVGID_22_" gradientUnits="userSpaceOnUse" x1="8274.2207" y1="390.5863" x2="8295.5586" y2="430.3183" gradientTransform="matrix(-1 0 0 -1 11631.2461 974)">
						<stop  offset="0" style="stop-color:#000000"/>
						<stop  offset="1" style="stop-color:#FFFFFF"/>
					</linearGradient>
					<path class="st27" d="M3358.3,571.4c-11.8,3-10.4,18-26.7,4.4c-3-3.2-5.1-6.5-6.5-9.6l8.5-5.5l24.1-3.1l8.4,3.2
						c0.5,0,1.1,0,1.6,0.1C3367.5,564.4,3365.9,569.5,3358.3,571.4z"/>
				</g>
			</g>
			<path class="st19" d="M3358.3,571.4c-11.8,3-10.4,18-26.7,4.4c-3-3.2-5.1-6.5-6.5-9.6l8.5-5.5l24.1-3.1l8.4,3.2
				c0.5,0,1.1,0,1.6,0.1C3367.5,564.4,3365.9,569.5,3358.3,571.4z"/>
			<g>
				<g>
					<defs>
						<polygon id="SVGID_23_" points="1,1 2,1 1,2 						"/>
					</defs>
					<defs>
						<polygon id="SVGID_24_" points="-1,-1 -2,-1 -1,-2 						"/>
					</defs>
					<clipPath id="SVGID_25_">
						<use xlink:href="#SVGID_23_"  style="overflow:visible;"/>
					</clipPath>
					<clipPath id="SVGID_26_" class="st28">
						<use xlink:href="#SVGID_24_"  style="overflow:visible;"/>
					</clipPath>
					
						<linearGradient id="SVGID_27_" gradientUnits="userSpaceOnUse" x1="8301.8418" y1="348.9112" x2="8290.3799" y2="385.8288" gradientTransform="matrix(-1 0 0 -1 11631.2461 974)">
						<stop  offset="0" style="stop-color:#000000"/>
						<stop  offset="1" style="stop-color:#FFFFFF"/>
					</linearGradient>
					<path class="st29" d="M3316.7,605.1c0,0.1,0,0.2,0.1,0.4c0,0.5,0.1,1.1,0.1,1.6c1.9,2.8,4.1,5.3,6.9,7.6
						c7.8,6.4,20.5,8.6,27.1,5.1c8.1-4.3,8.2-12,8.2-12l-42.2-22c0,0.2,0,0.4-0.1,0.6C3316.4,591.3,3316.2,597.5,3316.7,605.1z"/>
				</g>
			</g>
			<path class="st19" d="M3316.7,605.1c0,0.1,0,0.2,0.1,0.4c0,0.5,0.1,1.1,0.1,1.6c1.9,2.8,4.1,5.3,6.9,7.6
				c7.8,6.4,20.5,8.6,27.1,5.1c8.1-4.3,8.2-12,8.2-12l-42.2-22c0,0.2,0,0.4-0.1,0.6C3316.4,591.3,3316.2,597.5,3316.7,605.1z"/>
			<path class="st19" d="M3314.6,584.7c0,3.7,0.8,7.2,1.8,10.4v0.1c3,8.8,6.1,11.4,9.3,14.2c10.8,9.3,19.8,8.2,26.3,6.1
				c17.3-5.6-1.2-21.1-1.2-21.1c-4.5-2.9-7.4-6.6-9.2-10.4c-2.2-4.7-2.9-10-2.7-15.1c0.2-4.1,0.9-7,0.9-7l-13.3-1.2
				c-7.9,7-11.2,14.3-11.9,21.1C3314.7,582.8,3314.6,583.8,3314.6,584.7z"/>
			<g>
				<g>
					<defs>
						<polygon id="SVGID_28_" points="1,1 2,1 1,2 						"/>
					</defs>
					<defs>
						<polygon id="SVGID_29_" points="-1,-1 -2,-1 -1,-2 						"/>
					</defs>
					<clipPath id="SVGID_30_">
						<use xlink:href="#SVGID_28_"  style="overflow:visible;"/>
					</clipPath>
					<clipPath id="SVGID_31_" class="st30">
						<use xlink:href="#SVGID_29_"  style="overflow:visible;"/>
					</clipPath>
					
						<linearGradient id="SVGID_32_" gradientUnits="userSpaceOnUse" x1="8290.3164" y1="389.8827" x2="8316.082" y2="417.855" gradientTransform="matrix(-1 0 0 -1 11631.2461 974)">
						<stop  offset="0" style="stop-color:#000000"/>
						<stop  offset="1" style="stop-color:#FFFFFF"/>
					</linearGradient>
					<path class="st31" d="M3326.7,560.7l13.3,1.2c0,0-0.8,2.8-0.9,7c-0.1,1.7,0,3.5,0.2,5.2l0,0c0,0-3.7,0.4-5.7,4.9
						c-2,4.6-7.8,8-11.8,5.3c-3-2-4.5-7.1-4.2-12C3319.4,568.4,3322.3,564.5,3326.7,560.7z"/>
				</g>
			</g>
			<path class="st19" d="M3326.7,560.7l13.3,1.2c0,0-0.8,2.8-0.9,7c-0.1,1.7,0,3.5,0.2,5.2l0,0c0,0-3.7,0.4-5.7,4.9
				c-2,4.6-7.8,8-11.8,5.3c-3-2-4.5-7.1-4.2-12C3319.4,568.4,3322.3,564.5,3326.7,560.7z"/>
			<path class="st22" d="M3321.5,577.3c2.9,8,8.4,2.4,10.1-1.5c1.4-3.2,7.2-6.9,10.7-8.2c-3.8,10.9,4.1,9.3,4.1,9.3
				c5.6-11.3,15.4-7.5,19.8-15.5c1.9-3.5-4.3-7.4-12.6-8c-14.9-1-26.9,6.1-26.9,6.1C3318.1,569,3320.3,574.1,3321.5,577.3z"/>
			<g>
				<g>
					<defs>
						<polygon id="SVGID_33_" points="1,1 2,1 1,2 						"/>
					</defs>
					<defs>
						<polygon id="SVGID_34_" points="-1,-1 -2,-1 -1,-2 						"/>
					</defs>
					<clipPath id="SVGID_35_">
						<use xlink:href="#SVGID_33_"  style="overflow:visible;"/>
					</clipPath>
					<clipPath id="SVGID_36_" class="st32">
						<use xlink:href="#SVGID_34_"  style="overflow:visible;"/>
					</clipPath>
					
						<linearGradient id="SVGID_37_" gradientUnits="userSpaceOnUse" x1="8307.3721" y1="255.3097" x2="8280.0957" y2="303.2404" gradientTransform="matrix(-1 0 0 -1 11631.2461 974)">
						<stop  offset="0" style="stop-color:#000000"/>
						<stop  offset="1" style="stop-color:#FFFFFF"/>
					</linearGradient>
					<path class="st33" d="M3318.3,701.9c12.7,10.6,36.8,10.2,46.6,9.4c0.7-1.5,1.3-2.9,1.9-4.5c2.1-5.5,3.8-11.5,4.3-17.8
						l-62.2-8.7C3308.8,680.3,3307.4,692.9,3318.3,701.9z"/>
				</g>
			</g>
			<path class="st19" d="M3318.3,701.9c12.7,10.6,36.8,10.2,46.6,9.4c0.7-1.5,1.3-2.9,1.9-4.5c2.1-5.5,3.8-11.5,4.3-17.8l-62.2-8.7
				C3308.8,680.3,3307.4,692.9,3318.3,701.9z"/>
			<path class="st22" d="M3546.7,791.8l22.6-5.5c0,0,14.8,6.6,6.8,21.6l-17.5,6.3L3546.7,791.8z"/>
			<path class="st34" d="M3468.8,771.8c0,0-8.3,11.6-14.2,22.4c-9.4,17.6-18.2,42.1-1.3,56.7c14,12.1,49.2-15.1,119.2-35l-11.8-32.6
				c0,0-34.2,10.3-38.5,10.9c0,0,6.2-5.4,11.7-10.7c14.2-13.5,36.9-36.9,43.2-54c3.5-9.4,4.2-18.1-0.5-24.1l-99.3-3.1
				c0,0-51.7,7.1-77,22.6c-4.1,2.5-3.2,32.2-7.1,86.5c0,0,14.5,8.9,34.5,2.9l11.3-50.8C3439,763.4,3457,760.3,3468.8,771.8z"/>
			<path class="st22" d="M3310,677.6c-5,5.5,7,19.5,13.7,22.7c7.1,3.4,25.4,3.1,30.4-0.1c0,0,44.5,6.4,87.6,10.9
				c0,0,14.9-3.1,27.3-22c5.3-8.1,10.9-20.3,11.8-22.8l4.5-13.1l-23.6-18.7l-29.1,41.7c0,0-71.8,8.1-74.2,8c0,0-6.9-10.2-17.8-12.5
				l-15.4-3.2c0,0-4,5.6,12.6,12.4C3337.9,681,3313.2,674.1,3310,677.6z"/>
			<path class="st35" d="M3487.8,615.5l-41.2,30.6l-7.8-47.6l46.1-14.1L3487.8,615.5z"/>
			<path class="st22" d="M3471.4,558.6c1.6,2.4,3.2,6.5,4.6,11.2c0.7,2.1,1.3,4.3,1.9,6.6c0.1,0.4,0.2,0.7,0.3,1.1
				c2.8,11,4.8,22.1,4.8,22.1l32.2-27.9c0,0-7.8-11.5-10.6-16.5c-0.1-0.3-0.3-0.5-0.4-0.8c-1.7-3.2-5.9-12.9-5.9-12.9l-1.7-4.7
				l-8-2.3l-3.2,1.8L3471.4,558.6z"/>
			
				<linearGradient id="SVGID_38_" gradientUnits="userSpaceOnUse" x1="3495.7969" y1="400.5091" x2="3477.1128" y2="432.8707" gradientTransform="matrix(1 0 0 -1 0 974)">
				<stop  offset="9.123407e-02" style="stop-color:#FFFFFF;stop-opacity:0"/>
				<stop  offset="0.7263" style="stop-color:#000000"/>
				<stop  offset="0.9336" style="stop-color:#000000"/>
			</linearGradient>
			<path class="st36" d="M3471.4,558.6c1.6,2.4,3.2,6.5,4.6,11.2c0.7,2.1,3,10.9,3.5,13.1l27.7-22.5c-0.1-0.3-3-5.7-3.2-5.9
				c-1.7-3.2-5.9-12.9-5.9-12.9l-1.7-4.7l-8-2.3l-3.2,1.8L3471.4,558.6z"/>
			<path class="st22" d="M3501.1,531.2c-0.6,2.4-1.7,5.3-3.5,8.8c0,0-2.2,4.4-6.5,0c0,0-10.2,32-40.3,17.2c0,0-11.8-14.8-11.3-36.1
				c0,0-5-7-6-18l44-11.1l24,17C3501.6,509,3504.3,517.8,3501.1,531.2z"/>
			<path class="st20" d="M3414.1,492.5c0,0,33.1,34.1,70.3,17.9l-1.9,20.9h6.5c3.6-14.6,16.4-18.4,12.2-0.1c0,0,4.3-3.4,8.7-8.9
				l0.1-0.1c6.4-8,12.9-20.3,6.6-32.6l-6.4,2.4c0,0,6.7-24.7-34.7-27.4c-2.8-0.2-5.8-0.3-9.1-0.3l0.3,5.8c0,0-24.9-4.8-32.6,19.4
				C3434,489.6,3431.1,491.6,3414.1,492.5z"/>
			<g>
				<g>
					<defs>
						<polygon id="SVGID_39_" points="1,1 2,1 1,2 						"/>
					</defs>
					<defs>
						<polygon id="SVGID_40_" points="-1,-1 -2,-1 -1,-2 						"/>
					</defs>
					<clipPath id="SVGID_41_">
						<use xlink:href="#SVGID_39_"  style="overflow:visible;"/>
					</clipPath>
					<clipPath id="SVGID_42_" class="st37">
						<use xlink:href="#SVGID_40_"  style="overflow:visible;"/>
					</clipPath>
					
						<linearGradient id="SVGID_43_" gradientUnits="userSpaceOnUse" x1="8170.8579" y1="309.8065" x2="8198.6074" y2="286.6823" gradientTransform="matrix(-1 0 0 -1 11631.2461 974)">
						<stop  offset="0" style="stop-color:#FFFFFF"/>
						<stop  offset="1.541328e-02" style="stop-color:#FAFAFA"/>
						<stop  offset="0.3868" style="stop-color:#919191"/>
						<stop  offset="0.685" style="stop-color:#434343"/>
						<stop  offset="0.8957" style="stop-color:#131313"/>
						<stop  offset="1" style="stop-color:#000000"/>
					</linearGradient>
					<path class="st38" d="M3443.5,660.8l18.3-26.2l23.6,18.7l-4.5,13.1c-0.6,1.8-3.7,8.5-7.3,15.2
						C3457.5,676.6,3448.5,667.9,3443.5,660.8z"/>
				</g>
			</g>
			<path class="st39" d="M3443.5,660.8l18.3-26.2l23.6,18.7l-4.5,13.1c-0.6,1.8-3.7,8.5-7.3,15.2
				C3457.5,676.6,3448.5,667.9,3443.5,660.8z"/>
			<path class="st40" d="M3469.8,713.8c0,0,30.1,50,109.9,5.7l0,0c0.7-5.5-0.1-10.3-3.1-14.2H3509
				C3487.2,709.8,3469.8,713.8,3469.8,713.8z"/>
			<path class="st13" d="M3513.5,557.6c-3.8-3.6-17.5,11.8-17.5,11.8s-11.5-2.3-19.9,12.6l-37.4,68.9l42.5,30.5l13.3-18.8l-6.8,23.5
				l-18,27.7c0,0,31.5,47,117.4-8.9C3587.3,704.9,3581.2,622,3513.5,557.6z"/>
			<g>
				<g>
					<defs>
						<polygon id="SVGID_44_" points="1,1 2,1 1,2 						"/>
					</defs>
					<defs>
						<polygon id="SVGID_45_" points="-1,-1 -2,-1 -1,-2 						"/>
					</defs>
					<clipPath id="SVGID_46_">
						<use xlink:href="#SVGID_44_"  style="overflow:visible;"/>
					</clipPath>
					<clipPath id="SVGID_47_" class="st41">
						<use xlink:href="#SVGID_45_"  style="overflow:visible;"/>
					</clipPath>
					
						<linearGradient id="SVGID_48_" gradientUnits="userSpaceOnUse" x1="8116.3735" y1="307.0195" x2="8155.6851" y2="317.1102" gradientTransform="matrix(-1 0 0 -1 11631.2461 974)">
						<stop  offset="0" style="stop-color:#000000"/>
						<stop  offset="0.6241" style="stop-color:#A2A2A2"/>
						<stop  offset="1" style="stop-color:#FFFFFF"/>
					</linearGradient>
					<path class="st42" d="M3487.8,686.1c0,0,9.5-31,13-48.8C3500.8,637.4,3509.5,663.2,3487.8,686.1z"/>
				</g>
			</g>
			<path class="st35" d="M3487.8,686.1c0,0,9.5-31,13-48.8C3500.8,637.4,3509.5,663.2,3487.8,686.1z"/>
			<path class="st43" d="M3394.6,567.9c0,0,2.3,3.8,8.4,6.1c0.2-3.4-0.4-6.9-2.2-10.4c0,0-1.6,0.1-6.4,1.5
				C3394.4,565.9,3394.6,567.6,3394.6,567.9z"/>
			<g>
				<g>
					<defs>
						<polygon id="SVGID_49_" points="1,1 2,1 1,2 						"/>
					</defs>
					<defs>
						<polygon id="SVGID_50_" points="-1,-1 -2,-1 -1,-2 						"/>
					</defs>
					<clipPath id="SVGID_51_">
						<use xlink:href="#SVGID_49_"  style="overflow:visible;"/>
					</clipPath>
					<clipPath id="SVGID_52_" class="st44">
						<use xlink:href="#SVGID_50_"  style="overflow:visible;"/>
					</clipPath>
					
						<linearGradient id="SVGID_53_" gradientUnits="userSpaceOnUse" x1="8269.7754" y1="343.3618" x2="8267.8135" y2="372.3803" gradientTransform="matrix(-1 0 0 -1 11631.2461 974)">
						<stop  offset="0" style="stop-color:#000000"/>
						<stop  offset="1" style="stop-color:#FFFFFF"/>
					</linearGradient>
					<path class="st45" d="M3353.3,622.5c4.1,3.5,6.7,3.3,10.6,2.9c1.2-0.1,2.5,0.7,3.5,1.4c0.8,0.6,2.2,1,2.5,2.3
						c0.1-3.4,1.2-7.6,1.1-12.1C3367.9,620.7,3359.5,623.5,3353.3,622.5z"/>
				</g>
			</g>
			<path class="st19" d="M3353.3,622.5c4.1,3.5,6.7,3.3,10.6,2.9c1.2-0.1,2.5,0.7,3.5,1.4c0.8,0.6,2.2,1,2.5,2.3
				c0.1-3.4,1.2-7.6,1.1-12.1C3367.9,620.7,3359.5,623.5,3353.3,622.5z"/>
			<path class="st40" d="M3496.4,817.8c1.8-1.4,43.9-28.7,51.9-30.9c-4.2,1-21.8,6.6-26.2,7.2L3496.4,817.8z"/>
			<path class="st20" d="M3569.3,786.3c0,0-0.7-1.6,2.6-2.9s22.4-7.4,25.6-7.5c10.9,19.3,4.8,34.7,7,45.7s-0.6,23.8-6,30.8
				s-22.5,4.8-22.5,4.8s-10.4-14.8,7.5-18.4c3.7-11.2-6.8-17.3-7.5-30.9C3577.6,794.8,3575.3,791.4,3569.3,786.3z"/>
			<path class="st21" d="M3576.1,857.3c0,0,17.1,2.3,22.5-4.8c5.4-7,8.2-19.8,6-30.8s3.8-26.4-7-45.7c-0.7-2.7,7.4-3.2,7.4-3.2
				s0.4,1,4.4,11s-1.6,24.8,0.6,38.3c2.1,13.5-1.5,26.8-6.2,34.2s-14.7,7.4-27.5,6.1C3575.4,858.2,3576.1,857.3,3576.1,857.3z"/>
			<path class="st40" d="M3483.6,740.2c0,0-1,15.2-14.8,31.5c-3-2.9-6.4-4.9-9.9-6.2C3468.6,761.7,3476.6,755.1,3483.6,740.2z"/>
			<g>
				<g>
					<defs>
						<polygon id="SVGID_54_" points="1,1 2,1 1,2 						"/>
					</defs>
					<defs>
						<polygon id="SVGID_55_" points="-1,-1 -2,-1 -1,-2 						"/>
					</defs>
					<clipPath id="SVGID_56_">
						<use xlink:href="#SVGID_54_"  style="overflow:visible;"/>
					</clipPath>
					<clipPath id="SVGID_57_" class="st46">
						<use xlink:href="#SVGID_55_"  style="overflow:visible;"/>
					</clipPath>
					
						<linearGradient id="SVGID_58_" gradientUnits="userSpaceOnUse" x1="8462.3965" y1="283.3913" x2="8257.8506" y2="217.3814" gradientTransform="matrix(-1 0 0 -1 11631.2461 974)">
						<stop  offset="0" style="stop-color:#000000"/>
						<stop  offset="1" style="stop-color:#FFFFFF"/>
					</linearGradient>
					<path class="st47" d="M3250.8,726.2c16,8.6,29.6,6.1,29.6,6.1c-0.7-25.1,4.5-32.1,4.8-33.2c-5.3,20.4,12.6,56.4,12.6,56.4
						c-12.9,1.3-23.3-4.7-29.8-9c-34-22.8-63.1-15.2-63.1-15.2C3215.3,723,3240.6,720.7,3250.8,726.2z"/>
				</g>
			</g>
			<path class="st19" d="M3250.8,726.2c16,8.6,29.6,6.1,29.6,6.1c-0.7-25.1,4.5-32.1,4.8-33.2c-5.3,20.4,12.6,56.4,12.6,56.4
				c-12.9,1.3-23.3-4.7-29.8-9c-34-22.8-63.1-15.2-63.1-15.2C3215.3,723,3240.6,720.7,3250.8,726.2z"/>
			<g>
				<g>
					<defs>
						<polygon id="SVGID_59_" points="1,1 2,1 1,2 						"/>
					</defs>
					<defs>
						<polygon id="SVGID_60_" points="-1,-1 -2,-1 -1,-2 						"/>
					</defs>
					<clipPath id="SVGID_61_">
						<use xlink:href="#SVGID_59_"  style="overflow:visible;"/>
					</clipPath>
					<clipPath id="SVGID_62_" class="st48">
						<use xlink:href="#SVGID_60_"  style="overflow:visible;"/>
					</clipPath>
					
						<linearGradient id="SVGID_63_" gradientUnits="userSpaceOnUse" x1="8541.3887" y1="244.0816" x2="8475.1689" y2="269.9389" gradientTransform="matrix(-1 0 0 -1 11631.2461 974)">
						<stop  offset="0" style="stop-color:#000000"/>
						<stop  offset="1" style="stop-color:#FFFFFF"/>
					</linearGradient>
					<path class="st49" d="M3131.9,699.4l-1,4.4c-2.8,10.7-12.5,37.3-40.4,36.9C3122.8,730.1,3131.9,699.4,3131.9,699.4z"/>
				</g>
			</g>
			<g>
				
					<linearGradient id="SVGID_64_" gradientUnits="userSpaceOnUse" x1="8530.3838" y1="269.3708" x2="8530.9473" y2="268.43" gradientTransform="matrix(-1 0 0 -1 11631.2461 974)">
					<stop  offset="0.2579" style="stop-color:#F0B165"/>
					<stop  offset="0.8664" style="stop-color:#AA5C26"/>
				</linearGradient>
				<path class="st50" d="M3100.7,705.1L3100.7,705.1c-0.1,0-0.2,0.1-0.3,0.1C3100.5,705.2,3100.6,705.2,3100.7,705.1z"/>
				<g>
					<g>
						<defs>
							<polygon id="SVGID_65_" points="1,1 2,1 1,2 							"/>
						</defs>
						<defs>
							<polygon id="SVGID_66_" points="-1,-1 -2,-1 -1,-2 							"/>
						</defs>
						<clipPath id="SVGID_67_">
							<use xlink:href="#SVGID_65_"  style="overflow:visible;"/>
						</clipPath>
						<clipPath id="SVGID_68_" class="st51">
							<use xlink:href="#SVGID_66_"  style="overflow:visible;"/>
						</clipPath>
						
							<linearGradient id="SVGID_69_" gradientUnits="userSpaceOnUse" x1="8590.9521" y1="307.7444" x2="8489.0996" y2="268.0124" gradientTransform="matrix(-1 0 0 -1 11631.2461 974)">
							<stop  offset="0" style="stop-color:#000000"/>
							<stop  offset="1" style="stop-color:#FFFFFF"/>
						</linearGradient>
						<path class="st52" d="M3073,682.3c5,20.8,15.7,25.3,26.3,23.1c-20,6.9-26-7.5-30.8-23.3c-12.7-41.9-43.9-34.3-56.3-26.7
							C3054.6,626.2,3069.1,666.2,3073,682.3z"/>
					</g>
				</g>
			</g>
		</g>
		<g>
			<path class="st53" d="M3370.5,632.4c-0.5-1-50.1-7.5-54.4-9.8l-3.2,8.6c0,0,45.6,14.6,56.5,10.2
				C3369.4,641.3,3372.7,636.5,3370.5,632.4z"/>
			<g>
				
					<ellipse transform="matrix(0.6599 -0.7514 0.7514 0.6599 715.5099 2725.3203)" class="st54" cx="3368" cy="572.3" rx="2.9" ry="3"/>
			</g>
		</g>
		<path class="st55" d="M3396.9,590.8c-4.4,2.6-11,1.8-15.6-1c-0.7-0.4-1.9-1.3-2.5-2.1"/>
		<g>
			<circle class="st56" cx="3477.9" cy="621.5" r="18"/>
			<circle class="st13" cx="3477.9" cy="621.5" r="15.9"/>
			<g>
				<path class="st57" d="M3473.2,631.2c-0.1,0-0.2,0-0.3,0c-0.5,0-0.9-0.2-1.3-0.5c-0.7-0.5-1.1-1.1-1.3-1.9
					c-0.1-0.3-0.1-0.6-0.1-0.9c0-0.4,0.1-0.7,0.2-1.1c0.2-0.6,0.5-1.1,0.8-1.5c0.3-0.3,0.6-0.7,0.9-1c0.3-0.3,0.6-0.6,0.9-0.9
					c0.3-0.4,0.6-0.8,0.9-1.2c0.3-0.4,0.5-0.7,0.8-1.1c0.2-0.3,0.4-0.5,0.7-0.8s0.7-0.6,1.1-0.7c0.3-0.1,0.6-0.2,0.9-0.2
					c0.4,0,0.7,0,1.1,0.1c0.5,0.1,1,0.4,1.4,0.8c0.3,0.3,0.5,0.6,0.7,0.9c0.2,0.3,0.4,0.7,0.7,1c0.2,0.4,0.5,0.8,0.8,1.1
					c0.3,0.4,0.6,0.7,0.9,1c0.4,0.4,0.8,0.8,1.1,1.2s0.5,0.8,0.6,1.3c0.1,0.4,0.2,0.7,0.2,1.1c0,0.6-0.1,1.1-0.3,1.6s-0.6,0.8-1,1.1
					c-0.3,0.2-0.7,0.4-1,0.5c-0.1,0-0.3,0.1-0.4,0.1c0,0,0,0-0.1,0c0,0,0,0-0.1,0l0,0c-0.1,0-0.2,0-0.4,0l0,0l0,0l0,0
					c-0.3,0-0.6-0.1-0.9-0.1c-0.5-0.1-1-0.3-1.5-0.4c-0.4-0.1-0.8-0.2-1.2-0.2c-0.3,0-0.6,0-0.8,0s-0.4,0-0.7,0.1
					c-0.4,0.1-0.9,0.2-1.3,0.3c-0.5,0.1-0.9,0.2-1.4,0.3C3473.6,631.2,3473.4,631.3,3473.2,631.2l-0.1,0.1
					C3473.3,631.2,3473.2,631.2,3473.2,631.2z"/>
				<path class="st57" d="M3481.8,611.8c0.6,0.1,1.1,0.4,1.5,0.9c0.3,0.3,0.4,0.7,0.5,1.2c0.1,0.4,0.1,0.7,0.1,1.1
					c0,0.7-0.2,1.3-0.5,1.9c-0.2,0.4-0.5,0.8-0.8,1.1s-0.6,0.5-1,0.7c-0.3,0.1-0.6,0.2-0.9,0.1c-0.5,0-0.9-0.2-1.3-0.6
					c-0.3-0.3-0.5-0.7-0.7-1.1c-0.1-0.3-0.2-0.6-0.2-0.9c0-0.2,0-0.4,0-0.6c0-0.5,0.1-1,0.3-1.4c0.2-0.5,0.4-0.9,0.7-1.3
					c0.3-0.3,0.6-0.6,1-0.8c0.3-0.2,0.6-0.3,0.9-0.3l0,0l0,0l0,0c0.1,0,0.1,0,0.2,0C3481.7,611.8,3481.8,611.8,3481.8,611.8
					L3481.8,611.8L3481.8,611.8z"/>
				<path class="st57" d="M3467.3,619.2c0-0.2,0-0.4,0.1-0.6c0.1-0.4,0.3-0.7,0.5-1c0.3-0.3,0.6-0.5,1-0.6c0.3-0.1,0.7,0,1,0.1
					c0.4,0.1,0.7,0.3,1,0.6c0.5,0.4,0.8,0.9,1,1.4c0.1,0.3,0.2,0.6,0.2,0.9c0,0.2,0,0.3,0,0.5c0,0.3,0,0.6-0.1,0.9
					c-0.1,0.4-0.3,0.7-0.5,1c-0.3,0.3-0.7,0.5-1.1,0.6c-0.3,0.1-0.6,0-1-0.1s-0.8-0.4-1.1-0.7s-0.6-0.6-0.7-1
					c-0.2-0.4-0.3-0.8-0.4-1.2c0-0.1,0-0.1,0-0.2v-0.1l0,0c0,0,0,0,0-0.1s0-0.2,0-0.3C3467.3,619.3,3467.3,619.3,3467.3,619.2
					C3467.3,619.3,3467.3,619.3,3467.3,619.2z"/>
				<path class="st57" d="M3471.8,614.9c0-0.5,0.1-1,0.3-1.5c0.1-0.3,0.3-0.7,0.6-0.9c0.3-0.3,0.6-0.5,1-0.6s0.8-0.1,1.2,0.1
					c0.3,0.1,0.6,0.3,0.9,0.6c0.4,0.4,0.7,0.9,0.9,1.4c0.1,0.3,0.2,0.7,0.3,1c0,0.2,0,0.4,0.1,0.6c0,0.3,0,0.5-0.1,0.8
					c-0.1,0.5-0.3,1-0.6,1.5c-0.2,0.3-0.4,0.5-0.7,0.7s-0.7,0.3-1.1,0.2c-0.3,0-0.7-0.1-0.9-0.3c-0.4-0.2-0.7-0.5-1-0.9
					s-0.5-0.9-0.6-1.4c-0.1-0.3-0.1-0.6-0.1-0.8C3471.8,615.1,3471.8,615,3471.8,614.9z"/>
				<path class="st57" d="M3488.5,619.5C3488.5,619.6,3488.5,619.6,3488.5,619.5c0,0.6-0.2,1.1-0.4,1.5s-0.4,0.7-0.7,1
					c-0.4,0.4-0.8,0.7-1.3,0.8c-0.3,0.1-0.6,0.2-0.9,0.1c-0.5,0-0.9-0.2-1.2-0.5s-0.5-0.6-0.6-0.9c-0.1-0.3-0.1-0.7-0.1-1
					c0-0.7,0.3-1.4,0.7-2c0.1-0.2,0.3-0.4,0.5-0.6c0.4-0.4,0.8-0.6,1.3-0.8c0.3-0.1,0.6-0.1,0.9-0.1c0.4,0,0.8,0.2,1.2,0.5
					c0.3,0.3,0.5,0.6,0.6,1c0.1,0.2,0.1,0.4,0.1,0.7c0,0,0,0,0,0.1C3488.5,619.4,3488.5,619.5,3488.5,619.5z"/>
			</g>
		</g>
		<path class="st40" d="M3485.8,768.3c9.9-3.8,36.9,8.9,40.3,10.9s-31.6,36.8-34,35.9c-26.3-10-35.7-9.2-35.7-9.2
			S3476,772.2,3485.8,768.3z"/>
		<polygon class="st40" points="3557.7,821.9 3573.8,816.7 3561.2,782.1 3546.2,785.4 		"/>
		<polygon class="st40" points="3431.9,818.8 3432,801.8 3392.4,800.7 3390.6,816.1 		"/>
		<path class="st58" d="M3467.9,783.3c0.5,0.2,46.1,13.7,46.1,13.7"/>
		<g>
			<path class="st59" d="M3448.8,520.7c0.2,0.2,0.4,0.3,0.6,0.3c3.7,0.5,8.3,4.6,8.4,4.6c0.3,0.3,0.7,0.3,0.9,0s0.1-0.7-0.2-1
				c-0.2-0.2-5.1-4.6-9.3-5.1c-0.4,0-0.6,0.2-0.6,0.6C3448.6,520.4,3448.7,520.5,3448.8,520.7z"/>
		</g>
		<ellipse class="st60" cx="3450.3" cy="526.5" rx="2.5" ry="1.7"/>
		<path class="st61" d="M3439.8,520.9c0,0-2.4,11.8-2.4,13.7s4.9,3.9,9.8,3.9L3439.8,520.9z"/>
		<path class="st62" d="M3445.1,545.7c2.3,1.1,5.5,1.3,9.6-0.5"/>
	</g>
	<g>
		<g id="Ground_1_">
			<path class="st0" d="M2650,874c0,3.7,40.2,10.4,89.7,10.4s89.7-6.7,89.7-10.4s-39.3-12.7-88.8-12.7S2650,870.3,2650,874z"/>
		</g>
		<g>
			
				<linearGradient id="SVGID_70_" gradientUnits="userSpaceOnUse" x1="2739.7659" y1="39.9045" x2="2739.7659" y2="355.4379" gradientTransform="matrix(1 0 0 -1 0 974)">
				<stop  offset="0.3596" style="stop-color:#BA8F53"/>
				<stop  offset="0.9423" style="stop-color:#CCB27A"/>
			</linearGradient>
			<path class="st63" d="M2831.8,791.3c0-0.3,0-0.7,0-1c0-1-0.1-2-0.1-3c0,0,3.4-41.4-24.3-64.1c-26.5-21.7-41.3-33.4-42-66.2
				c-0.1-3.9-7.3-14.7-11.2-6.8c-7.6,15.7-7.6-1.5-13.6-1.6c-7-0.1-9,9.1-12.1,2.5c-4.3-9.2-10.4-6.2-11.6-4.8
				c-1.2,1.4-2.7,2.2-2.9,10.8c-0.7,32.8-17.2,34.8-41,60c-26.4,27.8-25.2,70.4-25.2,70.4c0,0.1,0,0.2,0,0.3c0,0.9-0.1,1.8-0.1,2.7
				c0,0.4,0,0.7,0,1.1c0,0.6,0,1.2,0,1.9c0,0.4,0,0.8,0,1.2c0,0.6,0,1.1,0,1.7c0,0.4,0,0.8,0,1.2c0,0.5,0,1.1,0.1,1.6
				c0,0.4,0.1,0.8,0.1,1.2c0,0.5,0.1,1,0.1,1.5c0,0.4,0.1,0.8,0.1,1.3s0.1,1,0.1,1.5c0,0.4,0.1,0.8,0.1,1.2c0.1,0.5,0.1,0.9,0.2,1.4
				c0.1,0.4,0.1,0.8,0.2,1.2c0.1,0.5,0.1,0.9,0.2,1.4c0.1,0.4,0.1,0.8,0.2,1.2c0.1,0.4,0.2,0.9,0.2,1.3c0.1,0.4,0.2,0.8,0.2,1.2
				c0.1,0.4,0.2,0.9,0.3,1.3c0.1,0.4,0.2,0.8,0.3,1.2s0.2,0.8,0.3,1.3c0.1,0.4,0.2,0.8,0.3,1.1c0.1,0.4,0.2,0.8,0.3,1.2
				s0.2,0.7,0.3,1.1c0.1,0.4,0.2,0.8,0.4,1.2c0.1,0.4,0.2,0.7,0.4,1.1c0.1,0.4,0.3,0.8,0.4,1.1c0.1,0.4,0.3,0.7,0.4,1.1
				c0.1,0.4,0.3,0.7,0.4,1.1c0.1,0.4,0.3,0.7,0.4,1.1c0.1,0.4,0.3,0.7,0.5,1.1c0.2,0.3,0.3,0.7,0.5,1s0.3,0.7,0.5,1s0.3,0.7,0.5,1
				s0.3,0.7,0.5,1s0.4,0.7,0.5,1c0.2,0.3,0.3,0.7,0.5,1s0.4,0.6,0.6,1c0.2,0.3,0.4,0.6,0.6,0.9c0.2,0.3,0.4,0.6,0.6,0.9
				c0.2,0.3,0.4,0.6,0.6,0.9c0.2,0.3,0.4,0.6,0.6,0.9c0.2,0.3,0.4,0.6,0.6,0.9c0.2,0.3,0.4,0.6,0.6,0.9c0.2,0.3,0.4,0.6,0.6,0.8
				c0.2,0.3,0.5,0.6,0.7,0.9c0.2,0.3,0.4,0.5,0.6,0.8c0.2,0.3,0.5,0.6,0.7,0.9c0.2,0.3,0.4,0.5,0.6,0.8c0.2,0.3,0.5,0.6,0.7,0.8
				s0.4,0.5,0.7,0.7c0.3,0.3,0.5,0.6,0.8,0.8c0.2,0.2,0.4,0.5,0.7,0.7c0.3,0.3,0.5,0.5,0.8,0.8c0.2,0.2,0.5,0.5,0.7,0.7
				c0.3,0.3,0.6,0.5,0.8,0.8c0.2,0.2,0.5,0.4,0.7,0.6c0.3,0.3,0.6,0.5,0.9,0.8c0.2,0.2,0.5,0.4,0.7,0.6c0.3,0.3,0.6,0.5,0.9,0.7
				c0.2,0.2,0.5,0.4,0.7,0.6c0.3,0.2,0.6,0.5,0.9,0.7c0.2,0.2,0.5,0.4,0.7,0.6c0.3,0.2,0.6,0.5,0.9,0.7c0.2,0.2,0.5,0.4,0.7,0.5
				c0.3,0.2,0.7,0.5,1,0.7c0.2,0.2,0.5,0.3,0.7,0.5c0.3,0.2,0.7,0.4,1,0.7c0.2,0.2,0.5,0.3,0.7,0.5c0.3,0.2,0.7,0.4,1,0.6
				c0.2,0.1,0.5,0.3,0.7,0.4c0.4,0.2,0.7,0.4,1.1,0.6c0.2,0.1,0.5,0.3,0.7,0.4c0.4,0.2,0.7,0.4,1.1,0.6c0.2,0.1,0.5,0.3,0.7,0.4
				c0.4,0.2,0.8,0.4,1.1,0.6c0.2,0.1,0.5,0.2,0.7,0.4c0.4,0.2,0.8,0.4,1.2,0.6c0.2,0.1,0.5,0.2,0.7,0.3c0.4,0.2,0.8,0.4,1.2,0.5
				c0.2,0.1,0.5,0.2,0.7,0.3c0.4,0.2,0.8,0.4,1.2,0.5c0.2,0.1,0.5,0.2,0.7,0.3c0.4,0.2,0.8,0.3,1.3,0.5c0.2,0.1,0.5,0.2,0.7,0.3
				c0.4,0.2,0.9,0.3,1.3,0.5c0.2,0.1,0.5,0.2,0.7,0.2c0.4,0.2,0.9,0.3,1.3,0.5c0.2,0.1,0.4,0.1,0.7,0.2c0.5,0.2,0.9,0.3,1.4,0.4
				c0.2,0.1,0.4,0.1,0.7,0.2c0.5,0.1,0.9,0.3,1.4,0.4c0.2,0.1,0.4,0.1,0.6,0.2c0.5,0.1,1,0.3,1.4,0.4c0.2,0.1,0.4,0.1,0.6,0.2
				c0.5,0.1,1,0.3,1.5,0.4c0.2,0,0.4,0.1,0.6,0.1c0.5,0.1,1,0.2,1.5,0.4c0.2,0,0.4,0.1,0.6,0.1c0.5,0.1,1,0.2,1.6,0.3
				c0.2,0,0.4,0.1,0.5,0.1c0.5,0.1,1.1,0.2,1.6,0.3c0.2,0,0.3,0.1,0.5,0.1c0.5,0.1,1.1,0.2,1.6,0.3c0.2,0,0.3,0.1,0.5,0.1
				c0.6,0.1,1.1,0.2,1.7,0.3c0.1,0,0.3,0,0.4,0.1c0.6,0.1,1.1,0.2,1.7,0.2c0.1,0,0.3,0,0.4,0.1c0.6,0.1,1.2,0.1,1.8,0.2
				c0.1,0,0.3,0,0.4,0c0.6,0.1,1.2,0.1,1.8,0.2c0.1,0,0.2,0,0.3,0c0.6,0.1,1.2,0.1,1.9,0.2c0.1,0,0.2,0,0.3,0c0.6,0,1.3,0.1,1.9,0.1
				c0.1,0,0.2,0,0.3,0c0.6,0,1.3,0.1,1.9,0.1c0.1,0,0.1,0,0.2,0c0.7,0,1.3,0.1,2,0.1c0.1,0,0.1,0,0.2,0c0.7,0,1.4,0,2,0h0.1
				c0.7,0,1.4,0,2.1,0c0,0,0,0,0.1,0c0.7,0,1.4,0,2.1,0c0.7,0,1.4,0,2.1,0c0,0,0,0,0.1,0c0.7,0,1.4,0,2.1,0h0.1c0.7,0,1.4,0,2,0
				c0.1,0,0.1,0,0.2,0c0.7,0,1.3,0,2-0.1c0.1,0,0.1,0,0.2,0c0.6,0,1.3-0.1,1.9-0.1c0.1,0,0.2,0,0.3,0c0.6,0,1.3-0.1,1.9-0.1
				c0.1,0,0.2,0,0.3,0c0.6,0,1.2-0.1,1.9-0.2c0.1,0,0.2,0,0.3,0c0.6-0.1,1.2-0.1,1.8-0.2c0.1,0,0.3,0,0.4,0c0.6-0.1,1.2-0.1,1.8-0.2
				c0.1,0,0.3,0,0.4-0.1c0.6-0.1,1.2-0.2,1.7-0.2c0.1,0,0.3,0,0.4-0.1c0.6-0.1,1.1-0.2,1.7-0.3c0.2,0,0.3-0.1,0.5-0.1
				c0.6-0.1,1.1-0.2,1.7-0.3c0.2,0,0.3-0.1,0.5-0.1c0.5-0.1,1.1-0.2,1.6-0.3c0.2,0,0.3-0.1,0.5-0.1c0.5-0.1,1.1-0.2,1.6-0.3
				c0.2,0,0.4-0.1,0.6-0.1c0.5-0.1,1-0.2,1.5-0.4c0.2,0,0.4-0.1,0.6-0.1c0.5-0.1,1-0.2,1.5-0.4c0.2-0.1,0.4-0.1,0.6-0.2
				c0.5-0.1,1-0.3,1.5-0.4c0.2-0.1,0.4-0.1,0.6-0.2c0.5-0.1,0.9-0.3,1.4-0.4c0.2-0.1,0.4-0.1,0.6-0.2c0.5-0.1,0.9-0.3,1.4-0.4
				c0.2-0.1,0.4-0.1,0.7-0.2c0.5-0.2,0.9-0.3,1.3-0.5c0.2-0.1,0.4-0.2,0.7-0.2c0.4-0.2,0.9-0.3,1.3-0.5c0.2-0.1,0.5-0.2,0.7-0.3
				c0.4-0.2,0.9-0.3,1.3-0.5c0.2-0.1,0.5-0.2,0.7-0.3c0.4-0.2,0.8-0.3,1.2-0.5c0.2-0.1,0.5-0.2,0.7-0.3c0.4-0.2,0.8-0.4,1.2-0.5
				c0.2-0.1,0.5-0.2,0.7-0.3c0.4-0.2,0.8-0.4,1.2-0.6c0.2-0.1,0.5-0.2,0.7-0.4c0.4-0.2,0.8-0.4,1.1-0.6c0.2-0.1,0.5-0.3,0.7-0.4
				c0.4-0.2,0.7-0.4,1.1-0.6c0.2-0.1,0.5-0.3,0.7-0.4c0.4-0.2,0.7-0.4,1.1-0.6c0.2-0.1,0.5-0.3,0.7-0.4c0.4-0.2,0.7-0.4,1-0.6
				c0.2-0.2,0.5-0.3,0.7-0.5c0.3-0.2,0.7-0.4,1-0.7c0.2-0.2,0.5-0.3,0.7-0.5c0.3-0.2,0.7-0.5,1-0.7c0.2-0.2,0.5-0.3,0.7-0.5
				c0.3-0.2,0.6-0.5,1-0.7c0.2-0.2,0.5-0.4,0.7-0.6c0.3-0.2,0.6-0.5,0.9-0.7c0.2-0.2,0.5-0.4,0.7-0.6c0.3-0.2,0.6-0.5,0.9-0.7
				c0.2-0.2,0.5-0.4,0.7-0.6c0.3-0.3,0.6-0.5,0.9-0.8c0.2-0.2,0.5-0.4,0.7-0.6c0.3-0.3,0.6-0.5,0.8-0.8c0.2-0.2,0.5-0.4,0.7-0.7
				c0.3-0.3,0.5-0.5,0.8-0.8c0.2-0.2,0.5-0.5,0.7-0.7c0.3-0.3,0.5-0.5,0.8-0.8c0.2-0.2,0.4-0.5,0.7-0.7c0.2-0.3,0.5-0.6,0.7-0.8
				c0.2-0.3,0.4-0.5,0.6-0.8c0.2-0.3,0.5-0.6,0.7-0.9c0.2-0.3,0.4-0.5,0.6-0.8c0.2-0.3,0.5-0.6,0.7-0.9c0.2-0.3,0.4-0.6,0.6-0.8
				c0.2-0.3,0.4-0.6,0.6-0.9c0.2-0.3,0.4-0.6,0.6-0.9c0.2-0.3,0.4-0.6,0.6-0.9c0.2-0.3,0.4-0.6,0.6-0.9c0.2-0.3,0.4-0.6,0.6-0.9
				c0.2-0.3,0.4-0.6,0.6-0.9c0.2-0.3,0.4-0.6,0.6-1c0.2-0.3,0.4-0.6,0.5-1c0.2-0.3,0.4-0.7,0.5-1c0.2-0.3,0.3-0.7,0.5-1
				s0.3-0.7,0.5-1s0.3-0.7,0.5-1s0.3-0.7,0.5-1c0.2-0.4,0.3-0.7,0.5-1.1c0.1-0.4,0.3-0.7,0.4-1.1c0.1-0.4,0.3-0.7,0.4-1.1
				c0.1-0.4,0.3-0.7,0.4-1.1c0.1-0.4,0.3-0.8,0.4-1.2c0.1-0.4,0.3-0.7,0.4-1.1c0.1-0.4,0.2-0.8,0.4-1.2c0.1-0.4,0.2-0.7,0.3-1.1
				c0.1-0.4,0.2-0.8,0.3-1.2s0.2-0.8,0.3-1.1c0.1-0.4,0.2-0.8,0.3-1.3c0.1-0.4,0.2-0.8,0.3-1.2s0.2-0.9,0.3-1.3
				c0.1-0.4,0.2-0.8,0.2-1.2c0.1-0.4,0.2-0.9,0.2-1.3c0.1-0.4,0.1-0.8,0.2-1.2c0.1-0.5,0.1-0.9,0.2-1.4c0.1-0.4,0.1-0.8,0.2-1.2
				c0.1-0.5,0.1-0.9,0.2-1.4c0-0.4,0.1-0.8,0.1-1.2c0.1-0.5,0.1-1,0.1-1.5c0-0.4,0.1-0.8,0.1-1.2c0-0.5,0.1-1,0.1-1.6
				c0-0.4,0.1-0.8,0.1-1.2c0-0.5,0-1.1,0.1-1.6c0-0.4,0-0.8,0-1.2c0-0.6,0-1.2,0-1.8c0-0.4,0-0.8,0-1.1
				C2831.9,792.6,2831.8,791.9,2831.8,791.3z"/>
			<g>
				<path class="st56" d="M2779.4,711.5c-0.3-5.8-1.8-11.4-4.2-15.5c-1.8-3-4-5.1-6.4-6.1c-0.9-0.4-1.9-1-2.6,0.4
					c-0.7,1.4-1.2,3.7-1.6,5.4c-0.6,2.5-1.1,5.1-1.4,7.7c-0.5,4.8-0.3,9.9,0.9,14.3c1.2,4.4,3.5,8,6.2,9.2s5.8-0.3,7.6-4.1
					C2779.2,719.7,2779.6,715.5,2779.4,711.5z M2775.6,717.9c-1.2,2.5-3.2,3.5-5,2.7s-3.3-3.2-4.1-6.1s-0.9-6.3-0.6-9.4
					c0.2-1.8,0.5-3.5,0.9-5.1c0.3-1.1,0.6-2.6,1.1-3.6c0.5-0.9,1.1-0.5,1.7-0.3c1.6,0.7,3,2.1,4.2,4c1.6,2.7,2.6,6.4,2.8,10.2
					C2776.8,713.1,2776.5,715.8,2775.6,717.9z"/>
				<path class="st56" d="M2785.3,693.8c-3-2.6-6.4-4.5-9.3-5.1c-2.1-0.5-4-0.3-5.3,0.4c-0.5,0.3-1.2,0.5-0.7,1.6s1.4,2.4,2.1,3.4
					c1,1.5,2.2,3,3.4,4.4c2.2,2.6,4.9,4.9,7.5,6.3c2.6,1.5,5.2,2,6.8,1.1c1.5-0.9,1.9-3.2,0.6-6
					C2789.4,697.8,2787.4,695.6,2785.3,693.8z M2787.2,698.9c0.9,1.8,0.6,3.4-0.4,3.9c-1,0.6-2.7,0.2-4.5-0.7c-1.7-1-3.5-2.5-5-4.2
					c-0.8-0.9-1.6-1.9-2.2-2.9c-0.5-0.7-1.1-1.6-1.4-2.3c-0.3-0.7,0.1-0.9,0.5-1c0.9-0.5,2.1-0.6,3.5-0.3c1.9,0.4,4.1,1.7,6.1,3.4
					C2785.2,696,2786.5,697.4,2787.2,698.9z"/>
			</g>
			<g>
				<path class="st64" d="M2725.7,807.8c-0.3,0-0.5,0-0.8-0.1c-1.4-0.1-2.7-0.6-3.9-1.4c-2-1.5-3.3-3.4-3.8-5.8
					c-0.2-0.9-0.2-1.8-0.2-2.8c0.1-1.1,0.3-2.2,0.6-3.2c0.6-1.7,1.4-3.2,2.4-4.5c0.8-1,1.7-2,2.7-2.8c0.9-0.8,1.8-1.7,2.6-2.6
					c1-1.2,1.9-2.4,2.8-3.7c0.8-1.1,1.6-2.2,2.4-3.3c0.6-0.8,1.3-1.6,2-2.3c0.9-0.9,1.9-1.7,3.1-2.1c0.9-0.4,1.8-0.6,2.8-0.6
					c1.1,0,2.2,0.1,3.3,0.3c1.6,0.4,3.1,1.2,4.3,2.4c0.8,0.8,1.5,1.7,2.2,2.6c0.7,1,1.3,2,2,3.1c0.7,1.2,1.5,2.3,2.4,3.4
					c0.9,1.1,1.8,2.1,2.8,3c1.2,1.1,2.4,2.3,3.3,3.7c0.8,1.2,1.5,2.4,1.9,3.8c0.4,1,0.6,2.1,0.6,3.2c0.1,1.7-0.2,3.3-1,4.8
					c-0.7,1.4-1.7,2.5-3,3.4c-0.9,0.7-2,1.2-3.1,1.4c-0.4,0.1-0.8,0.2-1.2,0.2c-0.1,0-0.1,0-0.2,0c-0.1,0-0.1,0-0.2,0h-0.1
					c-0.3,0-0.7,0-1,0h-0.1h-0.1h-0.1c-0.9,0-1.8-0.2-2.6-0.4c-1.5-0.3-2.9-0.8-4.4-1.2c-1.2-0.3-2.4-0.5-3.6-0.7
					c-0.8-0.1-1.7-0.1-2.5-0.1c-0.7,0-1.3,0.1-2,0.2c-1.3,0.2-2.6,0.6-3.9,0.9c-1.4,0.4-2.7,0.7-4.1,1c-0.6,0.1-1.1,0.2-1.7,0.2
					c-0.1,0-0.2,0-0.4,0C2726,807.8,2725.8,807.9,2725.7,807.8z"/>
				<path class="st64" d="M2751.5,749.9c1.9,0.2,3.3,1.2,4.4,2.7c0.8,1,1.2,2.2,1.5,3.4c0.3,1.1,0.3,2.2,0.3,3.2
					c-0.1,2-0.5,3.9-1.4,5.7c-0.6,1.3-1.4,2.4-2.4,3.4c-0.9,0.9-1.9,1.6-3.1,2c-0.8,0.3-1.7,0.5-2.5,0.4c-1.5-0.1-2.8-0.7-3.9-1.7
					c-0.9-0.9-1.6-2-2-3.2c-0.3-0.8-0.5-1.7-0.6-2.6c-0.1-0.6-0.1-1.2-0.1-1.8c0-1.4,0.3-2.8,0.8-4.2s1.2-2.8,2.2-4
					c0.8-1,1.8-1.9,2.9-2.5c0.8-0.5,1.7-0.8,2.7-0.9h0.1h0.1h0.1c0.2,0,0.4,0,0.6,0h0.1C2751.3,749.9,2751.3,749.9,2751.5,749.9
					C2751.4,749.9,2751.4,749.9,2751.5,749.9z"/>
				<path class="st64" d="M2708.2,772.1c0-0.6,0.1-1.1,0.3-1.7c0.3-1.1,0.8-2.1,1.5-2.9c0.8-0.9,1.9-1.5,3.1-1.8c1-0.2,2-0.1,3,0.2
					c1.1,0.3,2.1,0.9,3,1.7c1.4,1.2,2.3,2.6,3,4.3c0.4,0.9,0.6,1.8,0.7,2.7c0.1,0.5,0.1,0.9,0.1,1.4c0,0.9-0.1,1.7-0.3,2.6
					c-0.3,1.1-0.8,2.1-1.5,3c-0.9,1-2,1.6-3.3,1.8c-1,0.2-1.9,0.1-2.8-0.2c-1.3-0.4-2.3-1.1-3.3-2c-0.9-0.9-1.7-1.9-2.2-3
					c-0.6-1.1-0.9-2.3-1.1-3.5c0-0.2-0.1-0.4-0.1-0.7c0-0.1,0-0.2,0-0.3v-0.1c0-0.1,0-0.1,0-0.2c0-0.3,0-0.5,0-0.8
					c0-0.1,0-0.2,0-0.2C2708.2,772.3,2708.1,772.2,2708.2,772.1z"/>
				<path class="st64" d="M2721.4,759.3c0-1.6,0.2-3,0.8-4.4c0.4-1,1-2,1.7-2.8c0.8-0.9,1.8-1.5,3-1.8s2.3-0.2,3.5,0.2
					c1,0.4,1.9,0.9,2.7,1.7c1.2,1.2,2.1,2.6,2.8,4.1c0.4,1,0.7,2,0.8,3.1c0.1,0.6,0.1,1.2,0.2,1.8c0,0.8,0,1.5-0.2,2.3
					c-0.3,1.6-0.8,3.1-1.8,4.4c-0.6,0.8-1.3,1.5-2.2,2c-1,0.5-2.1,0.8-3.2,0.7c-1-0.1-2-0.4-2.8-0.9c-1.1-0.7-2.1-1.6-2.8-2.7
					c-0.9-1.3-1.5-2.7-1.9-4.2c-0.2-0.8-0.4-1.7-0.4-2.5C2721.4,759.8,2721.4,759.5,2721.4,759.3z"/>
				<path class="st64" d="M2771.3,773.1c0,0.1,0,0.1,0,0.2c-0.1,1.5-0.5,3-1.1,4.3c-0.5,1.1-1.2,2.1-2,2.9c-1.1,1.1-2.3,2-3.7,2.5
					c-0.9,0.3-1.8,0.5-2.7,0.4c-1.4-0.1-2.6-0.6-3.6-1.5c-0.8-0.8-1.4-1.7-1.7-2.8c-0.3-1-0.4-1.9-0.4-3c0.1-2.2,0.8-4.2,2-6.1
					c0.4-0.6,0.9-1.2,1.4-1.7c1.1-1.1,2.3-1.9,3.8-2.4c0.8-0.3,1.7-0.4,2.6-0.3c1.3,0.1,2.5,0.6,3.5,1.5c0.9,0.8,1.4,1.9,1.8,3
					c0.2,0.6,0.3,1.3,0.3,2c0,0.1,0,0.1,0,0.2C2771.3,772.6,2771.3,772.8,2771.3,773.1z"/>
			</g>
		</g>
		<g>
			<path class="st56" d="M2738.8,694.2c-6.1,0-12.3-0.6-18.1-3.4c-1.2-0.6-2.3-1.2-3.4-1.8c-1.4-0.8-2.7-1.5-4.1-2.1
				c-1.5-0.6-4.3-1.5-6.6-0.4c-1.1,0.5-2.3,0-2.8-1.1s0-2.3,1.1-2.8c2.8-1.3,6.4-1.1,10,0.4c1.6,0.7,3.1,1.5,4.5,2.3
				c1.1,0.6,2.1,1.2,3.1,1.7c7.3,3.5,16,3.1,23.7,2.7l22.8-1c0.5,0,1.5-0.1,2-0.3c-0.7-0.4-1.1-1.2-1-2c0.1-1.2,1.1-2,2.3-1.9
				c1.3,0.1,2.4,1,2.9,2.3c0.6,1.5,0.2,3.3-0.9,4.4c-1.6,1.6-3.8,1.7-5.2,1.8l-22.8,1C2744,694.1,2741.5,694.2,2738.8,694.2z"/>
		</g>
	</g>
</g>
</svg>
